<?xml version="1.0" standalone="no"?>
<!DOCTYPE svg PUBLIC "-//W3C//DTD SVG 20010904//EN"
 "http://www.w3.org/TR/2001/REC-SVG-20010904/DTD/svg10.dtd">
<svg version="1.0" xmlns="http://www.w3.org/2000/svg"
 width="299.000000pt" height="298.000000pt" viewBox="0 0 299.000000 298.000000"
 preserveAspectRatio="xMidYMid meet">

<g transform="translate(0.000000,298.000000) scale(0.100000,-0.100000)"
fill="#000000" stroke="none">
<path d="M449 2955 c-98 -33 -181 -80 -248 -142 -90 -81 -128 -152 -192 -359
-5 -18 -9 -401 -9 -951 0 -888 1 -923 20 -1001 26 -106 51 -162 105 -237 72
-101 174 -174 310 -221 79 -28 85 -28 380 -34 165 -3 586 -5 935 -4 717 1 725
2 880 76 67 32 101 57 160 117 87 87 132 165 160 277 19 74 20 114 20 1011 0
1041 1 1022 -68 1163 -26 53 -58 96 -107 146 -79 79 -151 124 -257 159 l-73
24 -975 0 -975 -1 -66 -23z m551 -455 c0 -44 -3 -80 -7 -80 -5 0 -7 30 -5 67
l4 68 -21 -20 c-62 -61 -71 -62 -71 -11 l0 45 43 4 c23 2 45 4 50 5 4 1 7 -34
7 -78z m482 48 c-5 -19 -7 -20 -10 -5 -5 24 -22 22 -22 -3 0 -11 -4 -21 -10
-21 -5 -1 -15 -2 -20 -3 -6 0 -15 -8 -20 -16 -7 -11 -10 -3 -10 28 l0 42 49 0
c46 0 49 -1 43 -22z m496 -30 l-2 -53 -3 48 -4 47 -39 0 c-32 0 -39 -4 -43
-22 -4 -20 -4 -19 -6 5 -1 26 1 27 49 27 l50 0 -2 -52z m-54 7 c-4 -8 -10 -12
-15 -9 -14 8 -10 24 6 24 9 0 12 -6 9 -15z m270 -34 c16 -9 38 -29 50 -44 21
-28 21 -38 23 -530 1 -276 3 -528 3 -559 l0 -58 43 0 c72 -1 176 -19 215 -39
65 -33 70 -45 71 -151 0 -52 -3 -103 -5 -112 -10 -33 -86 -67 -174 -79 -77
-11 -191 -8 -250 5 -14 3 -38 8 -53 12 -15 3 -47 21 -71 39 -43 32 -43 32 -87
18 -24 -9 -49 -20 -56 -25 -7 -5 -16 -7 -21 -4 -10 6 -39 -21 -31 -28 2 -2 31
-11 63 -20 35 -11 71 -29 87 -46 25 -24 29 -36 28 -79 -1 -29 1 -55 5 -58 3
-3 6 4 6 16 l0 21 38 -19 c111 -57 354 -54 461 5 50 27 61 24 61 -16 0 -52
-104 -95 -258 -106 -121 -8 -285 27 -266 58 4 7 2 8 -5 4 -6 -4 -18 -2 -26 4
-12 10 -18 10 -30 0 -20 -17 -19 -31 2 -23 13 5 15 3 8 -13 -4 -10 -7 -34 -6
-53 4 -72 -73 -108 -245 -118 -158 -9 -292 24 -328 80 -8 12 -16 43 -17 69 -2
43 -5 48 -26 48 -21 0 -23 -4 -23 -50 l0 -50 -322 0 c-296 0 -327 2 -365 19
-83 38 -78 -24 -81 936 -2 795 -1 852 15 885 29 57 74 80 154 80 l69 0 0 -71
c0 -39 5 -79 11 -91 14 -27 67 -47 107 -41 53 8 72 43 72 129 l0 74 150 0 150
0 0 -74 c0 -65 3 -79 24 -103 20 -23 32 -28 71 -28 39 0 51 5 71 28 21 24 24
38 24 103 l0 74 150 0 150 0 0 -71 c0 -81 9 -103 50 -124 88 -45 152 7 143
117 -8 85 -6 87 74 81 37 -3 81 -13 97 -22z m-49 -1582 c64 -18 263 -18 332 0
29 7 64 22 79 33 29 24 48 14 42 -23 -4 -34 -113 -86 -208 -99 -170 -24 -380
31 -380 99 0 39 8 43 49 22 20 -10 59 -24 86 -32z"/>
<path d="M828 2193 c23 -2 59 -2 80 0 20 2 1 4 -43 4 -44 0 -61 -2 -37 -4z"/>
<path d="M752 2034 c-2 -114 1 -154 11 -162 8 -7 74 -12 167 -13 137 -1 155 1
167 17 15 20 17 255 3 289 -6 15 -9 8 -9 -29 -1 -27 -4 -46 -8 -43 -3 4 -12 2
-20 -4 -10 -9 -13 -8 -13 1 0 7 -13 -4 -29 -24 -56 -70 -101 -116 -114 -116
-7 0 -31 18 -52 40 -37 38 -38 41 -22 57 16 16 18 15 44 -9 l28 -27 34 42 33
42 -36 -37 c-37 -39 -39 -39 -36 0 1 12 -2 22 -7 23 -4 0 -16 2 -26 4 -10 2
-14 -1 -10 -8 4 -7 0 -8 -13 -3 -10 4 -16 4 -12 1 10 -10 -24 -45 -44 -45 -10
0 -19 -6 -20 -12 -1 -7 -5 28 -8 77 -6 83 -6 77 -8 -61z"/>
<path d="M1630 2103 c-14 -3 -29 -9 -34 -14 -16 -15 -349 -11 -365 4 -11 10
-13 9 -9 -3 4 -13 61 -15 418 -18 228 -1 417 1 421 5 5 5 -73 7 -173 5 -102
-2 -184 1 -187 6 -8 13 -42 20 -71 15z"/>
<path d="M1222 1952 c-8 -23 11 -31 83 -34 150 -6 425 2 425 13 0 5 -6 7 -12
3 -10 -6 -10 -4 0 8 8 10 9 19 4 22 -6 3 -119 5 -252 4 -192 -2 -243 -5 -248
-16z"/>
<path d="M1864 1753 c1 -18 -1 -30 -5 -27 -5 2 -20 2 -34 -2 -21 -5 -24 -9
-13 -16 9 -7 3 -8 -17 -4 -23 5 -26 4 -14 -4 16 -9 15 -15 -5 -75 -11 -35 -25
-65 -29 -65 -13 0 -34 -24 -40 -46 -4 -15 -6 -13 -5 6 1 53 -2 103 -6 99 -11
-11 -13 -73 -4 -107 15 -55 50 -87 121 -107 34 -9 76 -22 93 -27 39 -11 67
-40 62 -65 -1 -10 -19 -26 -38 -35 -32 -16 -41 -16 -87 -4 -29 8 -68 24 -87
35 l-34 22 -30 -56 -31 -56 31 -19 c17 -10 59 -26 93 -35 59 -16 62 -19 59
-45 -4 -32 9 -40 49 -33 22 4 27 11 27 34 0 25 5 30 43 40 32 8 45 18 57 42 8
18 31 40 50 49 41 21 53 54 40 112 -12 55 -71 108 -147 130 -84 25 -113 37
-129 53 -53 54 70 86 165 43 24 -11 44 -20 46 -20 2 0 12 20 24 45 22 47 20
71 -6 61 -8 -3 -12 -2 -9 3 7 10 -65 41 -95 41 -11 0 -24 10 -29 23 -6 15 -9
17 -9 5 -2 -37 -42 -24 -55 18 -3 10 -4 5 -2 -13z"/>
<path d="M925 1750 c88 -3 146 -7 129 -8 -18 -1 -45 -9 -60 -17 -16 -8 -45
-15 -65 -15 -31 0 -38 -5 -52 -36 -10 -19 -15 -40 -12 -45 3 -5 0 -6 -8 -3 -8
3 -18 0 -23 -7 -5 -8 -3 -10 5 -4 8 4 23 -3 40 -19 l26 -25 45 52 c25 28 45
59 45 68 0 10 4 21 9 26 6 5 6 2 1 -7 -5 -8 -4 -12 0 -7 5 4 16 0 26 -9 14
-12 16 -21 8 -41 -13 -36 -111 -142 -130 -143 -9 0 -34 19 -56 43 -30 32 -45
41 -65 39 -27 -3 -27 -3 -31 75 -1 43 -4 8 -5 -77 -1 -110 2 -160 10 -168 15
-15 305 -17 328 -2 21 13 22 298 1 323 -12 15 -35 17 -170 15 l-156 -2 160 -6z
m112 -26 c-3 -3 -12 -4 -19 -1 -8 3 -5 6 6 6 11 1 17 -2 13 -5z"/>
<path d="M1224 1685 c-4 -8 -4 -22 0 -30 4 -12 32 -15 166 -15 88 0 160 3 160
8 0 4 -72 6 -160 4 -156 -3 -160 -2 -160 18 0 18 6 20 63 19 34 -1 50 -4 35
-6 -44 -7 -32 -23 16 -23 48 0 71 16 34 23 -13 3 20 4 74 4 53 -1 94 1 91 6
-2 4 -74 7 -159 7 -128 0 -156 -3 -160 -15z"/>
<path d="M1000 1686 c0 -2 9 -6 20 -9 11 -3 18 -1 14 4 -5 9 -34 13 -34 5z"/>
<path d="M1265 1531 c-11 -5 -23 -7 -27 -5 -13 8 -19 -16 -8 -36 10 -19 20
-20 150 -20 76 0 145 3 154 6 19 7 21 35 4 52 -14 14 -240 16 -273 3z m267
-43 c-8 -8 -9 -4 -5 13 4 13 8 18 11 10 2 -7 -1 -18 -6 -23z m-244 -5 c-10 -2
-26 -2 -35 0 -10 3 -2 5 17 5 19 0 27 -2 18 -5z m205 0 c-13 -2 -35 -2 -50 0
-16 2 -5 4 22 4 28 0 40 -2 28 -4z"/>
<path d="M762 1298 c-17 -17 -17 -309 0 -326 8 -8 59 -12 163 -12 195 0 185
-9 185 168 0 72 -4 142 -10 156 l-10 26 -158 0 c-110 0 -162 -4 -170 -12z
m268 -83 c16 -20 14 -24 -59 -101 l-64 -67 -44 47 c-37 38 -43 49 -33 61 17
20 23 19 53 -9 l26 -24 46 54 c50 58 56 62 75 39z"/>
<path d="M1224 1235 c-4 -8 -4 -22 0 -30 4 -12 32 -15 166 -15 l160 0 0 30 0
30 -160 0 c-134 0 -162 -3 -166 -15z"/>
<path d="M1227 1083 c-13 -12 -7 -51 8 -57 20 -7 305 5 310 14 2 4 1 16 -2 28
-5 21 -10 22 -157 22 -84 0 -156 -3 -159 -7z"/>
<path d="M2530 1050 c-9 -6 -10 -10 -3 -10 6 0 15 5 18 10 8 12 4 12 -15 0z"/>
<path d="M2430 1020 c-20 -6 -21 -8 -5 -8 11 0 29 3 40 8 25 11 -1 11 -35 0z"/>
<path d="M2283 1003 c20 -2 54 -2 75 0 20 2 3 4 -38 4 -41 0 -58 -2 -37 -4z"/>
<path d="M1490 662 c0 -19 152 -62 236 -66 57 -3 66 -2 34 4 -25 4 -38 8 -30
9 111 14 143 28 42 17 -68 -6 -247 17 -269 36 -9 7 -13 7 -13 0z"/>
</g>
</svg>
